<svg xmlns="http://www.w3.org/2000/svg" viewBox="0 0 431.39 256.72"><defs><style>.cls-1{fill:#234798;}.cls-2{fill:#244798;}.cls-3{fill:#2d4792;}.cls-4{fill:#2e4792;}.cls-5{fill:#fff;}.cls-6{fill:#fefeff;}.cls-7{fill:#2e4894;}.cls-8{fill:#204697;}</style></defs><g id="Layer_2" data-name="Layer 2"><g id="Layer_1-2" data-name="Layer 1"><path class="cls-1" d="M415.29,68.36a78.59,78.59,0,0,1,12.45,24.1,74,74,0,0,1-.28,46.73c-5.4,16.41-15.47,29.42-27.86,41-15.86,14.82-34.49,25.2-54.46,33.07-21.09,8.32-43,14-65.69,15.9-6.62-.55-13.1,1.11-19.71,1.14-8,0-16,.71-24.05.52-9.34-.22-18.59-1.67-27.94-1.7a225.3,225.3,0,0,1-51.88-11.24c-3.24-1.09-6.68-1.64-9.56-3.66-2.4-.82-4.47-2.51-7.12-2.65-17.57-7-33.82-16.2-48-28.85a13.45,13.45,0,0,0-4-3.52l-1.53-1.5a7.39,7.39,0,0,0-3.16-3.31h0A6.9,6.9,0,0,0,80.2,172l0,0c-1-.9-1-2.8-2.77-3a84.81,84.81,0,0,1-18.83-34.83,75,75,0,0,1-1.34-30.37c2-13.55,7.83-25.44,15.82-36.27A124.51,124.51,0,0,1,113.23,32.5c4.12-.89,7.35-3.65,10.91-5.58C138.69,19,154.28,14,170.1,9.69a202.89,202.89,0,0,1,20.09-4.47C197,4.1,203.74,2.78,210.51,1.94A157.17,157.17,0,0,1,234.28.37C241.63-.3,249,.6,256.34.12a28.34,28.34,0,0,1,9,.52c-.07.1-.13.29-.22.3-.36.05-.4.28-.15.25,2.16-.22,4.36.29,6.51-.27,6.91-.27,13.6,1.34,20.36,2.41,3.62.58,7.22,1.29,10.83,1.93,1.1,1.26,2.69.46,4,1l.75.19c3.6,2.61,8.08,1.69,12,2.95,8.65,2,16.95,5.09,25.24,8.17a188.78,188.78,0,0,1,28.49,13.76c4.61,2.67,9.5,5.11,13.25,9.11,9.7,7.31,18,16.09,26.41,24.79l-.05-.07C413.33,66.42,413.54,68,415.29,68.36Z"/><path class="cls-1" d="M13.27,79.65,13,84.38c-1,1.82-1,1.82-1.08,4.79.64-1.24-1-3.1,1.07-4,0,2.37,0,4.74,0,7.11-1.33,1.36-1.54,2.71,0,4l1.68,15.11c.51,9.68,3.5,18.72,7.56,27.4,1.25,2.69,1.34,6.15,4.49,7.77a243.64,243.64,0,0,0,16.88,24.21c.73,1.93,2.3,3.12,3.86,4.32h0A27.37,27.37,0,0,0,54,181.46l0-.06c.57,2.09,2.64,2.73,4,4.07l0,0c.41.43-.42,1.23.1,1.31,2.24.36,3.37,2.14,4.85,3.49C71,197.14,79,204.11,88.39,209.33c5.86,2.4,11,6.13,16.52,9.11a257.74,257.74,0,0,0,33.5,14.63,15.78,15.78,0,0,0,6.74,3.16c11.73,3.14,23.49,6,35.45,8.32,20.32,3.88,40.78,4.22,61.31,3.84,12.4-.22,24.83-.69,37-3.77,3.84-1,7.92-.39,11.77-1.59.83-.25,2.06-.19,2.27,1s-.89,1.58-1.67,1.93a77,77,0,0,1-17.42,5.15c-7.51,1.46-15,2.84-22.65,3.59-17.13,2.55-34.37,2-51.6,2-10.61,0-21.11-1.36-31.53-2.81a232.46,232.46,0,0,1-37.14-8.13c-10.48-3.29-20.9-6.76-30.79-11.51-13.85-6.66-27.29-14.06-39.2-23.93-1.11-.93-2.67-1.2-3.53-2.48-3.28-2.09-5.71-5.34-9.35-7l.07.06c-2.91-3.72-7-6.24-9.88-10C19.81,173.65,6.75,153.35,2.12,128.19-.52,118.38,1,108.29,0,98.37a4.21,4.21,0,0,1,.29-2.32,25.33,25.33,0,0,1,1.58-8.66,15.36,15.36,0,0,0,1-7c2.77-9,5.12-18.18,10.13-26.33,1.34-.86,2.08-2.71,4.08-2.52a2.32,2.32,0,0,1,.64.93c.11,3.29-2.15,6.25-1.35,9.63l-.12.74c-1.61,2.66-1.72,5.68-2.05,8.64C13.2,74.13,13.49,76.92,13.27,79.65Z"/><path class="cls-2" d="M29,98.76A20.5,20.5,0,0,1,29,89.19a42.11,42.11,0,0,0,1-8C31.91,69,36.09,57.74,43.42,47.73c3-2.28,4.48-5.83,6.95-8.56,5.15-5.68,10.44-11.18,17-15.32,2.88-1.83,5.3-4.47,8.91-5,1-.15,2.4-.76,2.93.3.75,1.51-1,1.79-1.83,2.48A121.72,121.72,0,0,0,61.1,37.89c-2.42,2.9-5.05,5.74-6.37,9.43l-.58,1.32c-4.33,3.67-5.75,9.06-7.84,13.92a95.72,95.72,0,0,0-8.23,35.67c-.23,9.44.21,19,2.8,28.31.36,1.31,1.9,3.28-.41,4-1.84.59-3.16-.87-3.88-2.64a141.25,141.25,0,0,1-5.08-16.19C30.34,107.46,30.28,103,29,98.76Z"/><path class="cls-3" d="M29,98.76c2.54,3.93,2,8.66,3.34,12.9q2.4,7.7,4.82,15.37c.55,1.76,1.76,2.71,4.13,3-3.56-9.3-2.71-19-4.11-28.43C36.62,98,37.39,94.43,38,91c2-11.55,4.55-23,9.9-33.57q1.68-3.31,3.27-6.68c.61-1.29,1.36-2.29,3-2.07-3,5.82-6.3,11.5-8.66,17.71A103.19,103.19,0,0,0,39,107.18,106.73,106.73,0,0,0,45.78,140c1.14,3.15,1.44,6.6,3.46,9.44a1,1,0,0,1-.21,1.21c-4.42-3.62-6.41-8.95-9-13.66a94.07,94.07,0,0,1-11-36.31A14.25,14.25,0,0,1,29,98.76Z"/><path class="cls-4" d="M54.73,47.32c.27-5.08,4.24-8.07,7-11.52C65.65,31,70.45,27,74.7,22.42c1.21-1.28,3-1.47,4.69-3.26-9,1.59-14.81,7.15-20.7,12.35-4.8,4.23-9.54,8.69-12.37,14.66a2.57,2.57,0,0,1-2.9,1.56c4.72-8.07,11.31-14.53,18.33-20.51A102.36,102.36,0,0,1,94.27,9a16.75,16.75,0,0,1,5-1.11.53.53,0,0,1,.19.58c-.07.19-.14.28-.2.28C89.51,14.18,80,20,71.77,27.72,65.38,33.66,60.11,40.53,54.73,47.32Z"/><path class="cls-5" d="M162.36,139.36a40.59,40.59,0,0,0,1.53-12c.53-5.91,1-11.82,1.61-17.72.54-5.45.32-11.06.69-16.6.24-3.57.93-7.1.91-10.68,0-2.1,1.07-3.18,3.2-3.18,7,0,14.09.07,21.13,0,2.31,0,3.15,1.34,3.39,3.1,1.49,11,6.33,21.25,7.64,33,3.79-10,6.86-19.46,10.55-28.7a19.81,19.81,0,0,0,.71-1.86c1.57-5.37,1.57-5.35,7.16-5.54,4.75-.16,9.47.41,14.21.51,6.36.43,6.29.43,6.17,6.94-.34,17.73-.67,35.47-.84,53.21,0,2.72-.61,3.77-3.5,3.58a105.4,105.4,0,0,0-11.52,0c-2.14.08-2.78-.62-2.62-2.71.22-3,.14-6.07.19-9.11.09-9.23.51-18.46.38-27.07-1.84,5.67-4.66,11.65-6.44,18S212.24,134.59,211,141a3.45,3.45,0,0,1-3.59,3.07c-4.52.11-9,.05-13.55,0-2,0-2.55-1.1-3-2.93-3-12.15-5.42-24.46-8.9-36.44-.78,1.85-.12,3.72-.27,5.55.25,7.44-1.24,14.73-1.79,22.1a72.05,72.05,0,0,0-.1,7.91c.11,3-1.32,4-4.12,3.86-3.31-.12-6.62,0-9.94,0C161.64,144,161.4,143.66,162.36,139.36Z"/><path class="cls-6" d="M153.38,136.12c-1.24,2.23.71,5.73-1.61,6.94-2,1-4.93.31-7.45.32-13.41,0-26.82-.08-40.22.09-3,0-3.61-1-3.19-3.68,2.19-13.93,1.6-28,2.38-42,.28-5,.47-10,.53-15.09,0-2,.55-2.84,2.7-2.83q23.3.09,46.59,0c2.07,0,2.89.66,2.66,2.78a59.43,59.43,0,0,0-.51,8.31c.07,2.46-.72,3.18-3.18,3.13-8.23-.16-16.46,0-24.69-.15-2.56-.05-3.69.45-3.84,3.35-.5,9.67-1.37,7.54,6.84,7.75,5.44.14,10.9.1,16.32-.24,2.7-.17,3,.71,2.93,3.06-.39,10.86-.33,10.85-11,10.85-4.39,0-8.77.12-13.15.12-2.5,0-3.71.78-3.8,3.67-.22,7.88-.37,7.88,7.69,7.67q10.95-.28,21.89-.63c1,0,2.2-.49,2.48,1.11C153.79,132.46,154.38,134.34,153.38,136.12Z"/><path class="cls-5" d="M370.28,108.65a95.25,95.25,0,0,1,8.19,7.51c8.87,9.67,2.43,23.19-8.1,26.69-10.17,3.38-20.16,1.88-30.24,0a1.91,1.91,0,0,1-1.83-2.08c-.23-4.33-.52-8.66-.81-13.3,4.8,1,8.69,3.24,13.11,3.57a24.43,24.43,0,0,0,5.92,0c2.51-.42,4.71-1.28,5.77-3.66,1.16-2.62-1-4.42-2.46-5.81-4.74-4.35-9.77-8.38-14.69-12.53-7.77-5.4-7.32-18.58-.59-24.5,5.12-4.5,11.41-5.95,18-6a102.39,102.39,0,0,1,16.21,1.1c2.43.35,3.56,1.52,3.54,3.89,0,3,1,6,.86,9.08-.1,2.83-.87,3.84-3.85,2.84A32.06,32.06,0,0,0,367.17,94c-2.23.13-4.68.61-5.67,2.94s.84,3.87,2.15,5.56C365.54,104.94,368.66,106,370.28,108.65Z"/><path class="cls-7" d="M370.28,108.65a46.64,46.64,0,0,1-8.71-7.39c-2.61-3-1.75-6,2-7.34,5.19-1.81,10.31-.6,15.23.86,3.39,1,3.87.09,3.37-2.9a21.51,21.51,0,0,1-.48-6.32c.61-4.38-1.84-5.49-5.38-5.79-6.76-.58-13.59-1.43-20.27-.1C344.39,82,337.52,90.21,341,102.75c.72,2.57,3.4,3.73,4.11,6.24-5.34-3.37-7-9.68-6.18-15.68,1.41-10.09,12.81-15,20.58-15.24a109.89,109.89,0,0,1,20.18.73c1.8.26,3.08,1,3.32,2.83.63,4.55,1.23,9.12,1.6,13.69.22,2.76-1.9,2.77-3.41,1.76-3.7-2.46-7.86-1.89-11.85-2.3-2.68-.27-5.75,0-6.77,2.82s1.93,4.67,3.62,6.5C367.61,105.59,370,106.19,370.28,108.65Z"/><path class="cls-8" d="M17.15,51.73c-.61-3,.59-5.35,2.72-7.36-1.37,2.29.27,5.66-2.72,7.36Z"/><path class="cls-5" d="M297.89,141.73l-.88,1.55c-4.76,0-9.52-.07-14.27.15-2.33.11-3.21-.72-3.68-2.93-2.59-12.1-4.94-24.26-8.46-36.14a2.84,2.84,0,0,1-.67-2.07c0-.53,0,.15,0-.38s0-.78-.07-1.16c-.16.35.1.68,0,1a5.73,5.73,0,0,1-.69,3.33c-1.28,11.7-2.27,23.42-2.47,35.19,0,2.41-.71,3.28-3.17,3.12a51.55,51.55,0,0,0-9.13,0c-3.68.4-4-1.14-3.66-4.28,1.24-12.34,2.2-24.72,3.27-37.08,1.14-6.28,1.19-12.65,1.35-19,.07-2.4.67-3.16,3.15-3.11,6.76.13,13.53,0,20.29-.11,1.4,0,2.47,0,2.91,1.86,2.24,9.52,4.69,19,6.93,28.51.64,2.69.83,5.49,1.4,9.44,2.35-7.13,4.29-13.19,6.35-19.21,2.14-6.24,4.45-12.43,6.57-18.68.54-1.59,1.46-1.94,2.95-1.93,7,0,14.07.12,21.11,0,2.94-.06,2.77,1.62,2.63,3.6-1.06,15.88-1.46,31.79-1.78,47.7-.07,3.31-.14,6.63,0,9.94.09,1.79-.52,2.36-2.22,2.33-4.25-.06-8.5-.07-12.75,0-1.86,0-2.11-.78-2-2.44.29-5.82.4-11.66.58-17.49.63-6.93.16-13.86.24-20.79,0-.64-.34-.92-1-.6Z"/></g></g></svg>